<?xml version="1.0" encoding="UTF-8" standalone="no"?>
<svg
   xmlns:dc="http://purl.org/dc/elements/1.1/"
   xmlns:cc="http://creativecommons.org/ns#"
   xmlns:rdf="http://www.w3.org/1999/02/22-rdf-syntax-ns#"
   xmlns:svg="http://www.w3.org/2000/svg"
   xmlns="http://www.w3.org/2000/svg"
   xmlns:sodipodi="http://sodipodi.sourceforge.net/DTD/sodipodi-0.dtd"
   xmlns:inkscape="http://www.inkscape.org/namespaces/inkscape"
   version="1.1"
   id="Layer_2"
   x="0px"
   y="0px"
   width="400.667px"
   height="400.666px"
   viewBox="0 0 400.667 400.666"
   enable-background="new 0 0 400.667 400.666"
   xml:space="preserve"
   inkscape:version="0.48.4 r9939"
   sodipodi:docname="fi_circle.svg"><metadata
     id="metadata24"><rdf:RDF><cc:Work
         rdf:about=""><dc:format>image/svg+xml</dc:format><dc:type
           rdf:resource="http://purl.org/dc/dcmitype/StillImage" /></cc:Work></rdf:RDF></metadata><defs
     id="defs22" /><sodipodi:namedview
     pagecolor="#ffffff"
     bordercolor="#666666"
     borderopacity="1"
     objecttolerance="10"
     gridtolerance="10"
     guidetolerance="10"
     inkscape:pageopacity="0"
     inkscape:pageshadow="2"
     inkscape:window-width="1855"
     inkscape:window-height="1056"
     id="namedview20"
     showgrid="true"
     inkscape:zoom="1.1780386"
     inkscape:cx="618.99797"
     inkscape:cy="203.7454"
     inkscape:window-x="65"
     inkscape:window-y="24"
     inkscape:window-maximized="1"
     inkscape:current-layer="Layer_2"><inkscape:grid
       type="xygrid"
       id="grid3001" /></sodipodi:namedview><filter
     filterUnits="objectBoundingBox"
     id="AI_Shadow_1"><feGaussianBlur
       stdDeviation="5"
       result="blur"
       in="SourceAlpha"
       id="feGaussianBlur4" /><feOffset
       dy="0"
       dx="0"
       result="offsetBlurredAlpha"
       in="blur"
       id="feOffset6" /><feMerge
       id="feMerge8"><feMergeNode
         in="offsetBlurredAlpha"
         id="feMergeNode10" /><feMergeNode
         in="SourceGraphic"
         id="feMergeNode12" /></feMerge></filter><g
     id="g14"
     transform="matrix(1.126041,0,0,1.1228811,-25.596427,-24.565253)"
     style="filter:url(#AI_Shadow_1)"><path
       d="m 200.333,33.5 c -91.956,0 -166.5,74.544 -166.5,166.5 0,91.956 74.544,166.5 166.5,166.5 91.957,0 166.5,-74.544 166.5,-166.5 0,-91.956 -74.543,-166.5 -166.5,-166.5 z m 0.334,316.599 C 117.953,350.099 50.9,283.046 50.9,200.332 c 0,-82.713 67.053,-149.767 149.767,-149.767 82.714,0 149.767,67.053 149.767,149.767 -0.001,82.714 -67.054,149.767 -149.767,149.767 z"
       id="path16"
       inkscape:connector-curvature="0"
       style="fill:#232323" /><path
       stroke-miterlimit="10"
       d="m 200.333,33.5 c -91.956,0 -166.5,74.544 -166.5,166.5 0,91.956 74.544,166.5 166.5,166.5 91.957,0 166.5,-74.544 166.5,-166.5 0,-91.956 -74.543,-166.5 -166.5,-166.5 z m 0.334,316.599 C 117.953,350.099 50.9,283.046 50.9,200.332 c 0,-82.713 67.053,-149.767 149.767,-149.767 82.714,0 149.767,67.053 149.767,149.767 -0.001,82.714 -67.054,149.767 -149.767,149.767 z"
       id="path18"
       inkscape:connector-curvature="0"
       style="fill:none;stroke:#353535;stroke-width:1.29999995;stroke-miterlimit:10" /></g></svg>